<?xml version="1.0" standalone="no"?>
<!DOCTYPE svg PUBLIC "-//W3C//DTD SVG 1.1//EN" "http://www.w3.org/Graphics/SVG/1.1/DTD/svg11.dtd" >
<svg xmlns="http://www.w3.org/2000/svg" width="100%" height="100%">
<metadata>
Created by FontXChange 20110222 at Fri Aug  2 14:05:08 2013
 By James Beall
2004 T.26 Digital Type Foundry www.t26.com PSID#5134573 designer: Neil Summerour - Positype
</metadata>
<defs>
<font id="AauxProOT-Regular" horiz-adv-x="519" >
  <font-face 
    font-family="AauxProOT"
    font-weight="400"
    font-stretch="normal"
    units-per-em="1000"
    panose-1="2 0 5 6 3 0 0 2 0 4"
    ascent="775"
    descent="-225"
    x-height="484"
    cap-height="698"
    bbox="-116 -220.018 961 978"
    underline-thickness="20"
    underline-position="-115"
    stemh="63"
    stemv="67"
    unicode-range="U+0020-FB02"
  />
<missing-glyph horiz-adv-x="1000" 
 />
    <glyph glyph-name=".notdef" horiz-adv-x="1000" 
 />
    <glyph glyph-name="eth" unicode="&#xf0;" 
d="M464 241c0 -48 -3 -112 -34 -163c-33 -56 -96 -87 -170 -87c-74 -1 -138 32 -171 87c-31 51 -34 115 -34 163c0 51 4 113 34 163c33 55 97 87 171 87c23 0 45 -3 66 -9l-35 79h-121v63h93l-55 126h69l55 -126h89v-63h-61l51 -109l24 -43c27 -52 29 -117 29 -168zM397 241
c0 45 -3 93 -24 128s-62 55 -114 55c-51 1 -92 -20 -113 -55s-24 -83 -24 -128c0 -42 3 -93 24 -129c21 -34 62 -55 113 -55c52 0 93 21 114 55c21 36 24 87 24 129z" />
    <glyph glyph-name="Lslash" unicode="&#x141;" horiz-adv-x="496" 
d="M471 0h-404v257l-37 -16v70l37 17v370h69v-340l165 73v-71l-165 -72v-219h335v-69z" />
    <glyph glyph-name="lslash" unicode="&#x142;" horiz-adv-x="249" 
d="M219 338l-73 -33v-187c0 -35 5 -52 46 -52v-66c-45 0 -76 15 -94 43c-15 25 -17 53 -17 75v156l-51 -24v71l51 24v353h65v-323l73 34v-71z" />
    <glyph glyph-name="Scaron" unicode="&#x160;" horiz-adv-x="626" 
d="M466 921l-104 -146h-96l-104 146h85l67 -105l67 105h85zM571 197c0 -37 -10 -71 -30 -103c-46 -75 -133 -105 -216 -105c-137 0 -245 59 -271 205l68 12c11 -60 38 -102 90 -126c33 -15 66 -22 113 -22c59 0 125 20 156 71c14 22 20 44 20 68c0 53 -26 84 -74 107
c-14 7 -49 19 -133 39c-109 26 -145 49 -165 68c-31 30 -48 70 -48 115c0 50 22 95 62 129c38 33 92 48 161 48c56 0 109 -10 153 -36c31 -19 58 -45 78 -81c5 -9 8 -16 15 -31l-62 -29c-19 39 -34 63 -68 82c-26 15 -62 26 -116 26c-55 0 -92 -11 -116 -31
c-25 -21 -38 -48 -38 -77c0 -28 12 -56 35 -72c29 -20 94 -36 125 -44c72 -17 120 -31 148 -44c70 -35 113 -89 113 -169z" />
    <glyph glyph-name="scaron" unicode="&#x161;" horiz-adv-x="482" 
d="M402 679l-104 -146h-95l-105 146h85l67 -105l67 105h85zM433 138c0 -26 -7 -51 -22 -74c-34 -53 -98 -73 -158 -73c-97 0 -178 40 -198 147l66 12c7 -40 23 -65 57 -80c22 -10 43 -14 75 -14c38 0 81 12 102 43c8 13 12 26 12 39c0 32 -17 49 -46 62c-10 5 -34 13 -91 26
c-78 18 -104 33 -119 47c-24 22 -37 51 -37 84c0 37 17 70 47 94c29 23 68 34 118 34c68 0 131 -21 168 -82c3 -6 6 -11 13 -24l-60 -29c-11 22 -20 40 -44 53c-16 9 -40 16 -77 16s-61 -7 -76 -19s-22 -26 -22 -43c0 -15 5 -26 15 -36c10 -9 38 -19 89 -31
c50 -11 84 -21 104 -30c52 -24 84 -63 84 -122z" />
    <glyph glyph-name="Yacute" unicode="&#xdd;" horiz-adv-x="597" 
d="M388 921l-95 -146h-66l85 146h76zM562 698l-229 -467v-231h-69v233l-229 465h77l187 -379l186 379h77z" />
    <glyph glyph-name="yacute" unicode="&#xfd;" horiz-adv-x="438" 
d="M307 691l-95 -146h-66l85 146h76zM432 484l-223 -603c-8 -21 -20 -46 -42 -66c-25 -23 -59 -35 -94 -35h-29l1 67c27 -1 54 -4 76 17c12 10 19 26 25 41l36 95l-176 484h71l141 -389l143 389h71z" />
    <glyph glyph-name="Thorn" unicode="&#xde;" horiz-adv-x="624" 
d="M579 360c0 -70 -29 -130 -81 -162c-46 -29 -103 -33 -151 -33h-188v-165h-69v698h69v-143h188c48 1 105 -3 151 -32c52 -33 81 -92 81 -163zM510 360c0 48 -19 86 -49 105c-31 18 -74 22 -114 22h-188v-253h188c40 0 83 3 114 22c30 19 49 56 49 104z" />
    <glyph glyph-name="thorn" unicode="&#xfe;" horiz-adv-x="508" 
d="M468 238c1 -49 -3 -112 -32 -163c-32 -57 -92 -89 -163 -89c-46 0 -89 14 -121 40v-246h-67v918h67v-249c32 26 75 40 121 40c71 0 131 -32 163 -89c29 -50 32 -111 32 -162zM402 237c0 46 -4 95 -24 130c-19 34 -57 55 -105 55s-86 -20 -106 -55c-9 -16 -13 -36 -15 -57
v-146c2 -21 6 -40 15 -56c20 -35 58 -55 106 -55s86 21 105 55c21 36 24 87 24 129z" />
    <glyph glyph-name="Zcaron" unicode="&#x17d;" horiz-adv-x="601" 
d="M470 921l-105 -146h-95l-105 146h85l67 -105l67 105h86zM536 0h-481v58l392 572h-357v68h446v-61l-390 -568h390v-69z" />
    <glyph glyph-name="zcaron" unicode="&#x17e;" horiz-adv-x="476" 
d="M396 679l-105 -146h-95l-105 146h85l67 -105l67 105h86zM421 0h-371v63l282 356h-259v65h348v-60l-284 -358h284v-66z" />
    <glyph glyph-name="onehalf" unicode="&#xbd;" horiz-adv-x="778" 
d="M735 0h-253v46c20 56 59 115 102 155c75 71 91 95 91 121c0 39 -36 51 -61 51c-36 0 -55 -23 -74 -58l-52 27c28 54 65 90 126 90c58 0 120 -37 120 -110c0 -49 -26 -85 -109 -163c-36 -34 -60 -75 -74 -100h184v-59zM538 698l-308 -698h-61l309 698h60zM186 274h-58v348
l-67 -41l-29 50l121 73h33v-430z" />
    <glyph glyph-name="onequarter" unicode="&#xbc;" horiz-adv-x="740" 
d="M691 105h-27v-105h-60v105h-171v50l174 276h69l-168 -267h96v131l60 -12v-119h27v-59zM538 698l-308 -698h-61l309 698h60zM186 274h-58v348l-67 -41l-29 50l121 73h33v-430z" />
    <glyph glyph-name="onesuperior" unicode="&#xb9;" horiz-adv-x="256" 
d="M186 274h-58v348l-67 -41l-29 50l121 73h33v-430z" />
    <glyph glyph-name="threequarters" unicode="&#xbe;" horiz-adv-x="821" 
d="M791 105h-28v-105h-59v105h-172v50l174 276h70l-168 -267h96v131l59 -12v-119h28v-59zM619 698l-309 -698h-61l309 698h61zM290 399c0 -70 -57 -127 -127 -127c-55 0 -104 35 -121 87l-5 15l57 18l4 -15c10 -28 36 -47 65 -47c37 0 68 31 68 69c0 39 -31 70 -68 70h-31
v58h27c36 0 64 27 64 60s-28 60 -64 60c-28 0 -52 -17 -61 -41l-5 -15l-56 19l5 15c17 48 64 81 117 81c68 0 123 -53 123 -119c0 -34 -15 -66 -41 -88c31 -24 49 -60 49 -100z" />
    <glyph glyph-name="threesuperior" unicode="&#xb3;" horiz-adv-x="330" 
d="M290 399c0 -70 -57 -127 -127 -127c-55 0 -104 35 -121 87l-5 15l57 18l4 -15c10 -28 36 -47 65 -47c37 0 68 31 68 69c0 39 -31 70 -68 70h-31v58h27c36 0 64 27 64 60s-28 60 -64 60c-28 0 -52 -17 -61 -41l-5 -15l-56 19l5 15c17 48 64 81 117 81
c68 0 123 -53 123 -119c0 -34 -15 -66 -41 -88c31 -24 49 -60 49 -100z" />
    <glyph glyph-name="twosuperior" unicode="&#xb2;" horiz-adv-x="333" 
d="M293 274h-253v46c21 55 60 115 102 155c75 70 92 95 92 120c0 40 -36 52 -62 52c-36 0 -55 -23 -74 -58l-52 27c29 53 65 89 126 89c59 0 121 -37 121 -110c0 -48 -27 -84 -110 -163c-36 -34 -60 -74 -73 -100h183v-58z" />
    <glyph glyph-name="brokenbar" unicode="&#xa6;" horiz-adv-x="311" 
d="M181 389h-61v386h61v-386zM181 -76h-61v386h61v-386z" />
    <glyph glyph-name="minus" unicode="&#x2212;" horiz-adv-x="474" 
d="M439 243h-404v61h404v-61z" />
    <glyph glyph-name="multiply" unicode="&#xd7;" horiz-adv-x="435" 
d="M389 152l-50 -50l-122 122l-121 -122l-50 50l121 122l-121 121l50 50l121 -121l122 121l50 -50l-122 -121z" />
    <glyph glyph-name="space" unicode=" " horiz-adv-x="270" 
 />
    <glyph glyph-name="exclam" unicode="!" horiz-adv-x="280" 
d="M187 698v-336l-10 -190h-53l-11 190v336h74zM200 42c0 -28 -23 -50 -50 -50c-28 0 -50 22 -50 50c0 27 22 50 50 50c27 0 50 -23 50 -50z" />
    <glyph glyph-name="quotedbl" unicode="&#x22;" horiz-adv-x="340" 
d="M280 547h-76v151c0 21 17 39 38 39s38 -18 38 -39v-151zM136 547h-76v151c0 21 17 39 38 39s38 -18 38 -39v-151z" />
    <glyph glyph-name="numbersign" unicode="#" horiz-adv-x="706" 
d="M651 491l-14 -67h-123l-33 -150h124l-15 -67h-123l-45 -207h-68l44 207h-151l-44 -207h-69l44 207h-123l14 67h124l32 150h-123l14 67h124l44 207h69l-45 -207h151l45 207h68l-44 -207h123zM445 424h-151l-33 -150h152z" />
    <glyph glyph-name="dollar" unicode="$" horiz-adv-x="520" 
d="M483 225c0 -104 -87 -163 -182 -172v-53h-65v54c-89 8 -173 56 -191 156l64 17c12 -65 63 -103 127 -110v224c-84 19 -170 46 -170 150c0 95 85 142 170 148v59h65v-60c80 -9 132 -48 167 -121l-59 -27c-23 49 -54 77 -108 84v-183c93 -22 182 -53 182 -166zM236 406v169
c-49 -4 -105 -27 -105 -84c0 -55 62 -73 105 -85zM418 225c0 68 -62 88 -117 102v-210c59 7 117 41 117 108z" />
    <glyph glyph-name="percent" unicode="%" horiz-adv-x="788" 
d="M733 186c0 -96 -36 -196 -149 -196s-149 100 -149 196c0 97 36 197 149 197s149 -100 149 -197zM583 698l-309 -698h-69l309 698h69zM353 511c0 -96 -36 -197 -149 -197s-149 100 -149 196s36 198 149 198s149 -100 149 -197zM671 186c0 59 -12 137 -87 137
s-88 -78 -88 -137s13 -136 88 -136s87 77 87 136zM292 511c0 59 -13 136 -88 136s-87 -77 -87 -136s18 -136 87 -136c75 0 88 77 88 136z" />
    <glyph glyph-name="ampersand" unicode="&#x26;" horiz-adv-x="620" 
d="M587 61l-37 -61c-28 21 -49 41 -73 62c-56 -51 -136 -72 -210 -72c-118 0 -231 66 -231 196c0 99 55 161 139 211c-31 47 -61 102 -61 161c0 84 60 147 148 147c87 0 141 -59 141 -141c0 -91 -63 -141 -130 -183c58 -77 122 -150 192 -217c26 47 36 101 36 164h71
c0 -79 -15 -151 -53 -211c22 -20 43 -37 68 -56zM333 564c0 44 -25 73 -71 73c-48 0 -78 -32 -78 -79c0 -43 24 -89 50 -126c53 34 99 70 99 132zM423 110c-77 71 -146 150 -208 233c-68 -42 -108 -81 -108 -157c0 -83 79 -130 160 -130c57 0 114 18 156 54z" />
    <glyph glyph-name="quotesingle" unicode="'" horiz-adv-x="196" 
d="M136 547h-76v151c0 21 17 39 38 39s38 -18 38 -39v-151z" />
    <glyph glyph-name="parenleft" unicode="(" horiz-adv-x="327" 
d="M287 0h-90c-93 88 -147 221 -147 349c0 127 55 263 147 349h90c-105 -80 -164 -217 -164 -349c0 -131 59 -269 164 -349z" />
    <glyph glyph-name="parenright" unicode=")" horiz-adv-x="327" 
d="M277 349c0 -128 -55 -261 -148 -349h-89c104 80 164 218 164 349c0 132 -60 269 -164 349h89c92 -86 148 -222 148 -349z" />
    <glyph glyph-name="asterisk" unicode="*" horiz-adv-x="436" 
d="M391 556l-130 -39l82 -107l-49 -35l-76 111l-77 -111l-49 35l83 107l-130 39l19 57l127 -45l-4 135h61l-4 -135l128 45z" />
    <glyph glyph-name="plus" unicode="+" horiz-adv-x="501" 
d="M456 243h-175v-175h-61v175h-175v61h175v175h61v-175h175v-61z" />
    <glyph glyph-name="comma" unicode="," horiz-adv-x="220" 
d="M155 -14l-78 -121h-12v179c0 23 20 42 45 42s45 -19 45 -42v-58z" />
    <glyph glyph-name="hyphen" unicode="-" horiz-adv-x="397" 
d="M332 243h-267v61h267v-61z" />
    <glyph glyph-name="period" unicode="." horiz-adv-x="237" 
d="M172 45c0 -30 -24 -53 -54 -53c-29 0 -53 23 -53 53c0 29 24 53 53 53c30 0 54 -24 54 -53z" />
    <glyph glyph-name="slash" unicode="/" horiz-adv-x="394" 
d="M389 774l-314 -850h-70l315 850h69z" />
    <glyph glyph-name="zero" unicode="0" horiz-adv-x="577" 
d="M527 349c0 -143 -39 -356 -238 -356c-200 0 -239 213 -239 356c0 144 39 354 239 354c199 0 238 -210 238 -354zM458 349c0 119 -25 289 -169 289c-145 0 -170 -170 -170 -289c0 -118 25 -291 170 -291c144 0 169 173 169 291z" />
    <glyph glyph-name="one" unicode="1" horiz-adv-x="363" 
d="M238 0h-70v604l-100 -65l-32 51l159 108h43v-698z" />
    <glyph glyph-name="two" unicode="2" horiz-adv-x="559" 
d="M504 0h-449v59c39 101 102 193 188 260c72 55 172 82 172 191c0 82 -71 130 -147 130c-67 0 -119 -33 -146 -95l-61 28c37 85 115 133 207 133c117 0 217 -73 217 -197c0 -145 -102 -169 -199 -243c-61 -47 -126 -126 -153 -199h371v-67z" />
    <glyph glyph-name="three" unicode="3" 
d="M474 197c0 -125 -95 -204 -220 -204c-97 0 -177 44 -212 148l66 21c24 -71 80 -103 146 -103c84 0 149 55 149 138c0 95 -68 137 -171 137v60c95 0 156 36 156 122c0 72 -66 125 -139 125c-59 0 -115 -32 -137 -96l-65 22c37 92 114 139 204 139c113 0 205 -75 205 -190
c0 -62 -24 -118 -80 -149c66 -33 98 -98 98 -170z" />
    <glyph glyph-name="four" unicode="4" horiz-adv-x="552" 
d="M510 178h-68v-178h-69v178h-333v60l299 460h79l-292 -453h247v281l69 -13v-268h68v-67z" />
    <glyph glyph-name="five" unicode="5" horiz-adv-x="538" 
d="M493 235c0 -138 -84 -242 -233 -242c-93 0 -175 47 -208 146l66 20c23 -69 79 -100 143 -100c107 0 162 75 162 176c0 100 -53 174 -159 174c-46 0 -93 -18 -129 -52h-60v341h372v-65h-306v-195c37 25 78 37 122 37c150 0 230 -102 230 -240z" />
    <glyph glyph-name="six" unicode="6" horiz-adv-x="546" 
d="M495 212c0 -124 -95 -218 -219 -218c-141 0 -225 111 -225 245c0 194 89 350 247 459l100 1c-115 -78 -226 -177 -264 -318c36 40 89 59 143 59c131 0 218 -101 218 -228zM428 212c0 88 -59 162 -151 162c-98 0 -158 -61 -158 -158c0 -85 74 -157 158 -157
c86 0 151 67 151 153z" />
    <glyph glyph-name="seven" unicode="7" horiz-adv-x="501" 
d="M464 637c-116 -128 -236 -328 -228 -637h-75c-3 317 108 498 214 631h-271v-49h-69v116h429v-61z" />
    <glyph glyph-name="eight" unicode="8" horiz-adv-x="540" 
d="M495 197c0 -129 -102 -204 -225 -204c-124 0 -225 75 -225 204c0 72 31 137 97 170c-56 32 -78 93 -78 149c0 112 94 188 206 188s206 -74 206 -188c0 -55 -23 -117 -79 -149c66 -33 98 -98 98 -170zM406 516c0 72 -64 123 -136 123c-73 0 -136 -51 -136 -123
c0 -79 57 -120 136 -120c80 0 136 40 136 120zM424 197c0 89 -64 143 -154 143c-91 0 -155 -53 -155 -143c0 -83 70 -138 155 -138c84 0 154 55 154 138z" />
    <glyph glyph-name="nine" unicode="9" horiz-adv-x="534" 
d="M490 461c2 -189 -93 -347 -252 -461h-99c122 92 226 202 263 323c-37 -34 -78 -55 -135 -55c-126 0 -218 98 -218 219c0 118 92 218 216 218c145 0 223 -114 225 -244zM418 487c0 82 -69 152 -154 152s-147 -71 -147 -152s63 -153 147 -153c87 0 154 68 154 153z" />
    <glyph glyph-name="colon" unicode=":" horiz-adv-x="237" 
d="M172 333c0 -29 -24 -53 -54 -53c-29 0 -53 24 -53 53c0 30 24 54 53 54c30 0 54 -24 54 -54zM172 45c0 -30 -24 -53 -54 -53c-29 0 -53 23 -53 53c0 29 24 53 53 53c30 0 54 -24 54 -53z" />
    <glyph glyph-name="semicolon" unicode=";" horiz-adv-x="237" 
d="M172 333c0 -29 -24 -53 -54 -53c-29 0 -53 24 -53 53c0 30 24 54 53 54c30 0 54 -24 54 -54zM163 -14l-77 -121h-13v179c0 23 21 42 45 42c25 0 45 -19 45 -42v-58z" />
    <glyph glyph-name="less" unicode="&#x3c;" horiz-adv-x="467" 
d="M415 0h-88l-263 349l263 349h88l-263 -349z" />
    <glyph glyph-name="equal" unicode="=" horiz-adv-x="511" 
d="M456 320h-401v59h401v-59zM456 121h-401v60h401v-60z" />
    <glyph glyph-name="greater" unicode="&#x3e;" horiz-adv-x="467" 
d="M415 349l-263 -349h-88l263 349l-263 349h88z" />
    <glyph glyph-name="question" unicode="?" horiz-adv-x="497" 
d="M447 520c0 -74 -44 -113 -86 -138c-50 -30 -79 -52 -83 -119l-4 -89h-49s-8 62 -8 89c0 97 45 130 87 157c41 25 76 43 76 100c0 75 -58 118 -130 118c-69 0 -136 -42 -136 -124h-64c0 123 97 192 200 192c106 0 197 -71 197 -186zM301 41c0 -27 -22 -49 -49 -49
c-28 0 -50 22 -50 49c0 28 22 50 50 50c27 0 49 -22 49 -50z" />
    <glyph glyph-name="at" unicode="@" horiz-adv-x="710" 
d="M645 414c0 -31 -3 -62 -9 -93c-2 -11 -11 -40 -11 -47l-17 -277l-70 4l5 83c-38 -51 -98 -97 -165 -97c-104 0 -151 99 -151 190c0 113 66 252 173 299c22 10 45 16 68 16c42 0 80 -19 107 -52c-7 89 -51 192 -154 192c-122 0 -218 -135 -256 -236
c-19 -50 -30 -103 -30 -157c0 -71 21 -151 80 -196l-37 -58c-81 58 -113 157 -113 253c0 62 13 124 34 182c50 130 170 280 323 280c155 0 223 -151 223 -286zM548 301c0 49 -19 122 -80 122c-13 0 -27 -4 -39 -9c-81 -36 -131 -150 -131 -235c0 -49 18 -123 79 -123
c71 0 130 86 152 145c12 32 19 66 19 100z" />
    <glyph glyph-name="A" unicode="A" horiz-adv-x="656" 
d="M636 0h-75l-80 207h-306l-81 -207h-74l270 698h76zM456 274l-128 330l-128 -330h256z" />
    <glyph glyph-name="B" unicode="B" horiz-adv-x="639" 
d="M576 195c0 -145 -103 -195 -234 -195h-257v698h239c127 0 224 -48 224 -188c0 -56 -21 -115 -69 -147c68 -26 97 -99 97 -168zM479 510c0 95 -73 119 -155 119h-170v-238h182c87 0 143 21 143 119zM507 195c0 103 -72 140 -165 140h-188v-266h188c90 0 165 21 165 126z
" />
    <glyph glyph-name="C" unicode="C" horiz-adv-x="607" 
d="M552 589l-53 -44c-47 57 -89 93 -167 93c-168 0 -208 -150 -208 -289s40 -289 208 -289c78 0 120 36 167 93l53 -44c-61 -74 -120 -118 -220 -118c-208 0 -279 178 -279 358s71 358 279 358c100 0 159 -44 220 -118z" />
    <glyph glyph-name="D" unicode="D" horiz-adv-x="649" 
d="M586 349c0 -236 -25 -349 -292 -349h-209v698h209c259 0 292 -118 292 -349zM514 349c0 185 -2 280 -220 280h-140v-560h140c219 0 220 94 220 280z" />
    <glyph glyph-name="E" unicode="E" horiz-adv-x="589" 
d="M529 0h-444v698h444v-69h-375v-231h328v-67h-328v-262h375v-69z" />
    <glyph glyph-name="F" unicode="F" horiz-adv-x="569" 
d="M519 629h-365v-233h328v-67h-328v-329h-69v698h434v-69z" />
    <glyph glyph-name="G" unicode="G" horiz-adv-x="645" 
d="M569 0h-69v81c-37 -65 -98 -90 -172 -90c-207 0 -275 178 -275 358c0 182 69 358 280 358c101 0 157 -43 220 -118l-53 -44c-50 59 -88 93 -167 93c-169 0 -211 -150 -211 -289c0 -134 40 -289 206 -289c142 0 172 130 172 244h-176v65h245v-369z" />
    <glyph glyph-name="H" unicode="H" horiz-adv-x="674" 
d="M589 0h-70v329h-365v-329h-69v698h69v-303h365v303h70v-698z" />
    <glyph glyph-name="I" unicode="I" horiz-adv-x="251" 
d="M161 0h-71v698h71v-698z" />
    <glyph glyph-name="J" unicode="J" horiz-adv-x="534" 
d="M459 214c0 -145 -73 -221 -218 -221c-110 0 -188 51 -216 157l67 17c19 -72 82 -109 148 -109c107 0 149 53 149 156v484h70v-484z" />
    <glyph glyph-name="K" unicode="K" horiz-adv-x="578" 
d="M553 0h-87l-312 346v-346h-69v698h69v-343l290 343h81l-290 -346z" />
    <glyph glyph-name="L" unicode="L" horiz-adv-x="513" 
d="M488 0h-403v698h69v-631h334v-67z" />
    <glyph glyph-name="M" unicode="M" horiz-adv-x="747" 
d="M662 0h-69v516l-187 -516h-65l-186 516v-516h-70v698h70l219 -612l218 612h70v-698z" />
    <glyph glyph-name="N" unicode="N" horiz-adv-x="650" 
d="M565 0h-69l-342 574v-574h-69v698h69l342 -574v574h69v-698z" />
    <glyph glyph-name="O" unicode="O" horiz-adv-x="666" 
d="M611 349c0 -180 -67 -358 -278 -358c-210 0 -278 178 -278 358s68 358 278 358c211 0 278 -178 278 -358zM542 349c0 139 -40 289 -209 289s-208 -150 -208 -289s39 -289 208 -289s209 150 209 289z" />
    <glyph glyph-name="P" unicode="P" horiz-adv-x="614" 
d="M574 503c0 -146 -102 -195 -232 -195h-188v-308h-69v698h257c130 0 232 -49 232 -195zM505 503c0 106 -72 126 -163 126h-188v-256h188c91 0 163 24 163 130z" />
    <glyph glyph-name="Q" unicode="Q" horiz-adv-x="679" 
d="M629 0h-90l-36 43c-46 -35 -103 -52 -160 -52c-212 0 -280 175 -280 358c0 184 67 358 280 358c209 0 278 -177 278 -358c0 -91 -11 -183 -68 -258zM552 349c0 140 -41 289 -209 289c-174 0 -210 -145 -210 -289c0 -142 39 -289 210 -289c41 0 82 11 115 35
c-33 36 -72 56 -122 56v69c64 0 124 -27 170 -75c40 60 46 134 46 204z" />
    <glyph glyph-name="R" unicode="R" horiz-adv-x="611" 
d="M571 0h-81l-151 259c-21 36 -41 55 -84 55h-101v-314h-69v698h239c127 0 227 -53 227 -192c0 -98 -68 -181 -173 -191c13 -11 23 -25 31 -40zM481 506c0 100 -71 123 -157 123h-170v-253h173c88 0 154 31 154 130z" />
    <glyph glyph-name="S" unicode="S" horiz-adv-x="627" 
d="M572 199c0 -135 -123 -208 -246 -208c-128 0 -247 55 -272 192l68 17c20 -104 106 -143 203 -143c86 0 177 45 177 142c0 208 -421 69 -421 327c0 125 114 179 224 179c115 0 196 -37 246 -145l-62 -29c-39 84 -96 105 -184 105c-70 0 -155 -26 -155 -110
c0 -180 422 -57 422 -327z" />
    <glyph glyph-name="T" unicode="T" horiz-adv-x="564" 
d="M534 630h-217v-630h-70v630h-217v68h504v-68z" />
    <glyph glyph-name="U" unicode="U" horiz-adv-x="664" 
d="M584 292c0 -170 -58 -301 -252 -301s-252 131 -252 301v406h69v-406c0 -129 30 -232 183 -232s183 103 183 232v406h69v-406z" />
    <glyph glyph-name="V" unicode="V" horiz-adv-x="599" 
d="M569 698l-238 -698h-63l-238 698h73l197 -578l196 578h73z" />
    <glyph glyph-name="W" unicode="W" horiz-adv-x="790" 
d="M755 698l-166 -698h-67l-127 546l-127 -546h-67l-166 698h72l127 -545l127 545h67l128 -545l127 545h72z" />
    <glyph glyph-name="X" unicode="X" horiz-adv-x="613" 
d="M578 0h-82l-189 298l-190 -298h-82l231 360l-217 338h82l176 -276l175 276h83l-217 -338z" />
    <glyph glyph-name="Y" unicode="Y" horiz-adv-x="597" 
d="M562 698l-229 -467v-231h-69v233l-229 465h77l187 -383l186 383h77z" />
    <glyph glyph-name="Z" unicode="Z" horiz-adv-x="601" 
d="M536 0h-481v58l395 572h-360v68h446v-61l-393 -568h393v-69z" />
    <glyph glyph-name="bracketleft" unicode="[" horiz-adv-x="279" 
d="M229 -76h-159v850h159v-51h-92v-748h92v-51z" />
    <glyph glyph-name="backslash" unicode="\" horiz-adv-x="394" 
d="M389 -76h-69l-315 850h70z" />
    <glyph glyph-name="bracketright" unicode="]" horiz-adv-x="279" 
d="M209 -76h-159v51h92v748h-92v51h159v-850z" />
    <glyph glyph-name="asciicircum" unicode="^" horiz-adv-x="531" 
d="M476 408l-59 -33l-152 249l-152 -249l-58 33l177 290h67z" />
    <glyph glyph-name="underscore" unicode="_" horiz-adv-x="529" 
d="M514 -59h-499v59h499v-59z" />
    <glyph glyph-name="grave" unicode="`" horiz-adv-x="311" 
d="M236 545h-66l-95 146h76z" />
    <glyph glyph-name="a" unicode="a" horiz-adv-x="488" 
d="M433 10l-64 -20l-12 40c-41 -28 -91 -40 -140 -40c-83 0 -162 58 -162 146c0 92 76 146 162 146h84c19 0 37 4 51 17v51c0 54 -56 75 -102 75c-53 0 -99 -20 -116 -75l-61 23c26 85 95 118 179 118c83 0 166 -50 166 -141v-294zM352 103v128c-12 -8 -31 -11 -45 -11h-91
c-46 0 -94 -33 -94 -84c0 -50 49 -81 95 -81c54 0 95 12 135 48z" />
    <glyph glyph-name="b" unicode="b" horiz-adv-x="513" 
d="M458 240c0 -131 -42 -249 -195 -249c-48 0 -89 11 -121 44v-35h-67v698h67v-257c38 35 71 49 121 49c153 0 195 -118 195 -250zM392 240c0 92 -17 184 -129 184c-66 0 -121 -40 -121 -110v-148c0 -69 56 -109 121 -109c112 0 129 92 129 183z" />
    <glyph glyph-name="c" unicode="c" horiz-adv-x="496" 
d="M439 73c-51 -55 -91 -81 -167 -81c-147 0 -217 112 -217 248c0 137 70 249 217 249c77 0 116 -26 167 -82l-47 -44c-36 40 -65 63 -120 63c-113 0 -147 -88 -147 -186c0 -97 34 -186 147 -186c55 0 84 23 120 63z" />
    <glyph glyph-name="d" unicode="d" horiz-adv-x="508" 
d="M453 10l-64 -20l-13 43c-35 -29 -70 -42 -125 -42c-153 0 -196 118 -196 249c0 132 43 252 196 252c56 0 80 -8 121 -42v248h67v-641c0 -1 13 -43 14 -47zM372 320c0 61 -56 106 -121 106c-113 0 -129 -94 -129 -186c0 -91 16 -183 129 -183c65 0 121 36 121 111v152z
" />
    <glyph glyph-name="e" unicode="e" horiz-adv-x="504" 
d="M450 262l-1 -43h-327c2 -98 45 -163 149 -163c47 0 95 18 125 56l45 -45c-42 -54 -102 -76 -170 -76c-155 0 -216 105 -216 248c0 135 58 253 207 253c134 0 189 -109 188 -230zM383 284c-4 77 -36 143 -121 143c-88 0 -131 -59 -138 -143h259z" />
    <glyph glyph-name="f" unicode="f" horiz-adv-x="326" 
d="M291 698v-66c-83 0 -114 -38 -114 -117v-31h99v-66h-99v-418h-67v418h-45v66h45v30c0 117 62 184 181 184z" />
    <glyph glyph-name="g" unicode="g" horiz-adv-x="512" 
d="M466 -8c0 -115 -120 -180 -222 -180c-86 0 -193 29 -193 134c0 18 3 37 9 54l59 -21c-4 -10 -6 -20 -6 -30c0 -66 80 -77 131 -77c65 0 159 43 159 118c0 34 -34 54 -65 54c-55 0 -105 -26 -160 -26c-47 0 -92 20 -92 74c0 37 27 67 55 89c-50 28 -72 87 -72 141
c0 110 70 170 177 170c44 0 89 -11 123 -39c22 7 27 27 26 48h65c0 -40 -14 -81 -52 -99c10 -25 14 -52 14 -80c0 -114 -65 -168 -176 -168c-18 0 -36 3 -53 6c-23 -15 -46 -37 -46 -65c0 -15 15 -22 28 -22c56 0 107 29 163 29c65 0 128 -39 128 -110zM355 322
c0 73 -37 106 -109 106c-71 0 -110 -32 -110 -106c0 -71 40 -110 111 -110c74 0 108 38 108 110z" />
    <glyph glyph-name="h" unicode="h" horiz-adv-x="523" 
d="M458 0h-66v281c0 94 -28 144 -129 144c-72 0 -121 -56 -121 -126v-299h-67v698h67v-260c29 34 76 53 121 53c135 0 195 -74 195 -205v-286z" />
    <glyph glyph-name="i" unicode="i" horiz-adv-x="252" 
d="M172 662c0 -25 -20 -46 -46 -46c-25 0 -46 21 -46 46s21 46 46 46c26 0 46 -21 46 -46zM160 0h-68v484h68v-484z" />
    <glyph glyph-name="j" unicode="j" horiz-adv-x="260" 
d="M185 662c0 -25 -21 -46 -46 -46c-26 0 -46 21 -46 46s20 46 46 46c25 0 46 -21 46 -46zM169 -16c0 -122 -47 -204 -179 -204v67c94 -1 112 54 112 137v500h67v-500z" />
    <glyph glyph-name="k" unicode="k" horiz-adv-x="482" 
d="M456 0h-91l-223 255v-255h-67v698h67v-435l194 222h87l-197 -223z" />
    <glyph glyph-name="l" unicode="l" horiz-adv-x="241" 
d="M194 0c-75 0 -111 41 -111 114v584h68v-580c0 -34 4 -52 43 -52v-66z" />
    <glyph glyph-name="m" unicode="m" horiz-adv-x="787" 
d="M722 0h-67v298c0 70 -37 130 -113 130c-73 0 -110 -65 -110 -130v-298h-66v298c0 72 -39 130 -117 130c-61 0 -107 -60 -107 -126v-302h-67v484h67v-39c27 31 67 47 108 47c60 0 116 -24 148 -77c32 49 85 77 144 77c113 0 180 -85 180 -194v-298z" />
    <glyph glyph-name="n" unicode="n" horiz-adv-x="523" 
d="M458 0h-66v281c0 94 -28 145 -129 145c-72 0 -121 -57 -121 -127v-299h-67v484h67v-46c29 34 76 54 121 54c135 0 195 -75 195 -206v-286z" />
    <glyph glyph-name="o" unicode="o" 
d="M464 242c0 -138 -48 -249 -204 -249s-205 111 -205 248c0 138 49 251 205 251s204 -113 204 -250zM397 241c0 99 -20 185 -138 185c-117 0 -137 -86 -137 -185c0 -98 20 -183 137 -183s138 85 138 183z" />
    <glyph glyph-name="p" unicode="p" horiz-adv-x="513" 
d="M458 239c0 -132 -42 -251 -195 -251c-51 0 -95 12 -121 40v-248h-67v704h67v-36c37 34 69 45 121 45c153 0 195 -122 195 -254zM392 239c0 92 -16 187 -129 187c-65 0 -121 -44 -121 -112v-148c0 -69 55 -111 121 -111c113 0 129 93 129 184z" />
    <glyph glyph-name="q" unicode="q" horiz-adv-x="518" 
d="M453 473c-1 -6 -14 -46 -14 -48v-645h-67v248c-34 -27 -78 -40 -121 -40c-157 0 -197 120 -197 252c0 131 45 254 197 254c45 0 90 -16 125 -45l13 43zM372 166v149c0 69 -57 112 -121 112c-113 0 -129 -95 -129 -187s15 -185 129 -185c66 0 121 42 121 111z" />
    <glyph glyph-name="r" unicode="r" horiz-adv-x="399" 
d="M353 466l-26 -56c-20 12 -45 18 -66 18c-61 0 -120 -36 -120 -103v-325h-66v484h66v-36c33 36 70 45 120 45c28 0 70 -7 92 -27z" />
    <glyph glyph-name="s" unicode="s" horiz-adv-x="483" 
d="M434 138c0 -97 -93 -146 -181 -146c-99 0 -171 36 -198 137l66 21c18 -70 63 -94 132 -94c50 0 114 23 114 82c0 125 -296 48 -296 223c0 91 88 131 168 131c84 0 143 -29 181 -106l-60 -29c-26 54 -63 70 -121 70c-41 0 -101 -15 -101 -66c0 -100 296 -39 296 -223z" />
    <glyph glyph-name="t" unicode="t" horiz-adv-x="301" 
d="M246 419h-75v-301c0 -51 16 -52 63 -52v-66h-27c-72 0 -101 52 -101 118v301h-66v66h66v141h65v-141h75v-66z" />
    <glyph glyph-name="u" unicode="u" horiz-adv-x="528" 
d="M453 0h-66v36c-33 -29 -78 -44 -121 -44c-136 0 -196 66 -196 215v277h67v-277c0 -96 27 -150 129 -150c62 0 121 40 121 108v319h66v-484z" />
    <glyph glyph-name="v" unicode="v" horiz-adv-x="487" 
d="M457 484l-182 -484h-64l-181 484h71l142 -380l143 380h71z" />
    <glyph glyph-name="w" unicode="w" horiz-adv-x="768" 
d="M738 484l-155 -484h-65l-135 375l-135 -375h-65l-153 484h71l117 -371l133 371h64l134 -371l119 371h70z" />
    <glyph glyph-name="x" unicode="x" horiz-adv-x="483" 
d="M453 0h-81l-130 191l-131 -191h-81l171 249l-161 235h81l121 -174l121 174h80l-161 -235z" />
    <glyph glyph-name="y" unicode="y" horiz-adv-x="487" 
d="M457 484l-224 -603c-23 -62 -67 -102 -136 -101h-29l1 67l20 -1c46 0 65 16 81 59l36 95l-176 484h71l141 -389l143 389h72z" />
    <glyph glyph-name="z" unicode="z" horiz-adv-x="476" 
d="M421 0h-371v63l282 356h-259v65h348v-60l-284 -358h284v-66z" />
    <glyph glyph-name="braceleft" unicode="{" horiz-adv-x="334" 
d="M294 -71c-121 0 -175 59 -175 177c0 39 15 77 15 116c0 65 -26 98 -94 98v59c68 -1 94 32 94 98c0 37 -15 72 -15 109c0 123 47 183 175 183v-61c-92 0 -107 -50 -107 -130c0 -34 16 -66 16 -100c0 -48 -16 -103 -61 -129c45 -24 61 -80 61 -128c0 -36 -16 -69 -16 -104
c0 -76 22 -127 107 -127v-61z" />
    <glyph glyph-name="bar" unicode="|" horiz-adv-x="261" 
d="M166 -76h-71v850h71v-850z" />
    <glyph glyph-name="braceright" unicode="}" horiz-adv-x="334" 
d="M294 320c-69 0 -94 -33 -94 -98c0 -39 15 -77 15 -116c0 -118 -54 -177 -175 -177v61c85 0 107 51 107 127c0 35 -17 68 -17 104c0 48 17 104 62 128c-45 26 -61 81 -61 129c0 34 15 66 15 100c0 80 -15 130 -106 130v61c128 0 174 -60 174 -183c0 -37 -14 -72 -14 -109
c0 -66 26 -99 94 -98v-59z" />
    <glyph glyph-name="asciitilde" unicode="~" horiz-adv-x="465" 
d="M429 295c-36 -38 -69 -66 -117 -66c-69 0 -106 64 -163 64c-23 0 -43 -15 -64 -44l-49 44c33 40 68 67 115 67c70 0 107 -64 163 -64c25 0 43 16 67 45z" />
    <glyph glyph-name="Adieresis" unicode="&#xc4;" horiz-adv-x="656" 
d="M481 826c0 -28 -23 -51 -51 -51s-51 23 -51 51s23 51 51 51s51 -23 51 -51zM274 826c0 -28 -23 -51 -51 -51s-51 23 -51 51s23 51 51 51s51 -23 51 -51zM636 0h-75l-80 207h-306l-81 -207h-74l270 698h76zM456 274l-128 330l-128 -330h256z" />
    <glyph glyph-name="Aring" unicode="&#xc5;" horiz-adv-x="656" 
d="M444 861c0 -64 -52 -116 -116 -116s-117 52 -117 116s53 117 117 117s116 -53 116 -117zM636 0h-75l-80 207h-306l-81 -207h-74l270 698h76zM385 861c0 32 -26 57 -57 57c-32 0 -57 -25 -57 -57c0 -31 25 -57 57 -57c31 0 57 26 57 57zM456 274l-128 330l-128 -330h256z
" />
    <glyph glyph-name="Ccedilla" unicode="&#xc7;" horiz-adv-x="587" 
d="M542 589l-53 -44c-61 73 -100 93 -167 93c-70 0 -127 -30 -163 -87c-32 -49 -45 -103 -45 -202s13 -153 45 -202c36 -57 93 -87 163 -87c67 0 106 20 167 93l53 -44c-62 -75 -112 -107 -181 -115l26 -62l-68 -128h-78l86 133l-24 55c-85 5 -157 47 -203 118
c-40 62 -55 129 -55 239s15 177 55 239c50 77 129 119 222 119c90 0 147 -30 220 -118z" />
    <glyph glyph-name="Eacute" unicode="&#xc9;" horiz-adv-x="589" 
d="M407 921l-95 -146h-66l85 146h76zM529 0h-444v698h444v-69h-375v-231h328v-69h-328v-260h375v-69z" />
    <glyph glyph-name="Ntilde" unicode="&#xd1;" horiz-adv-x="630" 
d="M485 820l-9 -12c-52 -66 -109 -48 -158 -27c-38 17 -72 35 -94 16c-8 -7 -15 -18 -21 -26l-49 40c52 67 96 73 179 33c20 -10 60 -30 81 -10c8 7 15 17 22 25zM555 0h-69l-342 564v-564h-69v698h69l342 -564v564h69v-698z" />
    <glyph glyph-name="Odieresis" unicode="&#xd6;" horiz-adv-x="666" 
d="M484 826c0 -28 -23 -51 -51 -51s-51 23 -51 51s23 51 51 51s51 -23 51 -51zM277 826c0 -28 -23 -51 -51 -51s-51 23 -51 51s23 51 51 51s51 -23 51 -51zM611 349c0 -110 -15 -177 -55 -239c-50 -77 -129 -119 -223 -119s-173 42 -223 119c-40 62 -55 129 -55 239
s15 178 55 239c50 77 129 119 223 119s173 -42 223 -119c40 -62 55 -129 55 -239zM542 349c0 99 -13 153 -45 202c-37 57 -93 87 -164 87s-127 -30 -164 -87c-32 -49 -44 -103 -44 -202s12 -153 44 -202c37 -57 93 -87 164 -87s127 30 164 87c32 49 45 103 45 202z" />
    <glyph glyph-name="Udieresis" unicode="&#xdc;" horiz-adv-x="664" 
d="M489 826c0 -28 -23 -51 -51 -51s-51 23 -51 51s23 51 51 51s51 -23 51 -51zM281 826h1c0 -28 -23 -51 -51 -51s-51 23 -51 51s23 51 51 51s50 -23 50 -51zM584 302c0 -65 -5 -141 -42 -203c-41 -69 -118 -107 -210 -108c-92 0 -169 39 -210 108c-37 62 -42 138 -42 203
v396h69v-396c0 -58 5 -121 33 -168c28 -46 82 -74 150 -74s123 28 150 74c28 47 33 110 33 168v396h69v-396z" />
    <glyph glyph-name="aacute" unicode="&#xe1;" horiz-adv-x="488" 
d="M339 691l-95 -146h-66l85 146h76zM433 10l-64 -20l-12 40c-41 -28 -91 -40 -140 -40c-83 0 -162 58 -162 146c0 92 76 146 162 146h84c19 0 37 4 51 17v51c0 54 -56 75 -102 75c-53 0 -99 -20 -116 -75l-61 23c26 85 95 118 179 118c83 0 166 -50 166 -141v-294
s14 -43 15 -46zM352 103v128c-12 -8 -31 -11 -45 -11h-91c-46 0 -94 -33 -94 -84c0 -50 49 -81 95 -81c54 0 95 12 135 48z" />
    <glyph glyph-name="agrave" unicode="&#xe0;" horiz-adv-x="488" 
d="M311 545h-66l-95 146h76zM433 10l-64 -20l-12 40c-41 -28 -91 -40 -140 -40c-83 0 -162 58 -162 146c0 92 76 146 162 146h84c19 0 37 4 51 17v51c0 54 -56 75 -102 75c-53 0 -99 -20 -116 -75l-61 23c26 85 95 118 179 118c83 0 166 -50 166 -141v-294s14 -43 15 -46z
M352 103v128c-12 -8 -31 -11 -45 -11h-91c-46 0 -94 -33 -94 -84c0 -50 49 -81 95 -81c54 0 95 12 135 48z" />
    <glyph glyph-name="acircumflex" unicode="&#xe2;" horiz-adv-x="488" 
d="M392 533h-75l-67 104l-67 -104h-75l95 146h95zM433 10l-64 -20l-12 40c-41 -28 -91 -40 -140 -40c-83 0 -162 58 -162 146c0 92 76 146 162 146h84c19 0 37 4 51 17v51c0 54 -56 75 -102 75c-53 0 -99 -20 -116 -75l-61 23c26 85 95 118 179 118c83 0 166 -50 166 -141
v-294s14 -43 15 -46zM352 103v128c-12 -8 -31 -11 -45 -11h-91c-46 0 -94 -33 -94 -84c0 -50 49 -81 95 -81c54 0 95 12 135 48z" />
    <glyph glyph-name="adieresis" unicode="&#xe4;" horiz-adv-x="488" 
d="M407 593c0 -28 -22 -51 -50 -51c-29 0 -51 23 -51 51s22 51 51 51c28 0 50 -23 50 -51zM200 593c0 -28 -23 -51 -51 -51s-50 23 -50 51s22 51 50 51s51 -23 51 -51zM433 10l-64 -20l-12 40c-41 -28 -91 -40 -140 -40c-83 0 -162 58 -162 146c0 92 76 146 162 146h84
c19 0 37 4 51 17v51c0 54 -56 75 -102 75c-53 0 -99 -20 -116 -75l-61 23c26 85 95 118 179 118c83 0 166 -50 166 -141v-294s14 -43 15 -46zM352 103v128c-12 -8 -31 -11 -45 -11h-91c-46 0 -94 -33 -94 -84c0 -50 49 -81 95 -81c54 0 95 12 135 48z" />
    <glyph glyph-name="atilde" unicode="&#xe3;" horiz-adv-x="488" 
d="M420 596c-25 -33 -49 -58 -93 -58c-54 0 -105 43 -144 43c-23 0 -32 -18 -44 -34l-49 40c24 31 52 58 94 58c55 0 100 -43 142 -43c24 0 32 17 45 34zM433 10l-64 -20l-12 40c-41 -28 -91 -40 -140 -40c-83 0 -162 58 -162 146c0 92 76 146 162 146h84c19 0 37 4 51 17
v51c0 54 -56 75 -102 75c-53 0 -99 -20 -116 -75l-61 23c26 85 95 118 179 118c83 0 166 -50 166 -141v-294s14 -43 15 -46zM352 103v128c-12 -8 -31 -11 -45 -11h-91c-46 0 -94 -33 -94 -84c0 -50 49 -81 95 -81c54 0 95 12 135 48z" />
    <glyph glyph-name="aring" unicode="&#xe5;" horiz-adv-x="488" 
d="M373 649c0 -64 -52 -117 -116 -117c-65 0 -117 53 -117 117s52 116 117 116c64 0 116 -52 116 -116zM433 10l-64 -20l-12 40c-41 -28 -91 -40 -140 -40c-83 0 -162 58 -162 146c0 92 76 146 162 146h84c19 0 37 4 51 17v51c0 54 -56 75 -102 75c-53 0 -99 -20 -116 -75
l-61 23c26 85 95 118 179 118c83 0 166 -50 166 -141v-294s14 -43 15 -46zM314 649c0 31 -26 57 -57 57c-32 0 -58 -26 -58 -57c0 -32 26 -57 58 -57c31 0 57 25 57 57zM352 103v128c-12 -8 -31 -11 -45 -11h-91c-46 0 -94 -33 -94 -84c0 -50 49 -81 95 -81
c54 0 95 12 135 48z" />
    <glyph glyph-name="ccedilla" unicode="&#xe7;" horiz-adv-x="476" 
d="M429 73c-42 -46 -77 -72 -131 -79l31 -67l-69 -123h-84l87 128l-28 61c-129 13 -190 119 -190 247c0 137 70 249 217 249c77 0 116 -26 167 -82l-47 -44c-36 40 -65 63 -120 63c-113 0 -147 -88 -147 -186c0 -97 34 -186 147 -186c55 0 84 23 120 63z" />
    <glyph glyph-name="eacute" unicode="&#xe9;" horiz-adv-x="504" 
d="M376 691l-95 -146h-66l85 146h76zM450 262l-1 -43h-327c2 -98 45 -163 149 -163c47 0 95 18 125 56l45 -45c-42 -54 -102 -76 -170 -76c-155 0 -216 105 -216 248c0 135 58 253 207 253c134 0 189 -109 188 -230zM383 284c-4 77 -36 143 -121 143
c-88 0 -131 -59 -138 -143h259z" />
    <glyph glyph-name="egrave" unicode="&#xe8;" horiz-adv-x="504" 
d="M321 545h-66l-95 146h76zM450 262l-1 -43h-327c2 -98 45 -163 149 -163c47 0 95 18 125 56l45 -45c-42 -54 -102 -76 -170 -76c-155 0 -216 105 -216 248c0 135 58 253 207 253c134 0 189 -109 188 -230zM383 284c-4 77 -36 143 -121 143c-88 0 -131 -59 -138 -143h259z
" />
    <glyph glyph-name="ecircumflex" unicode="&#xea;" horiz-adv-x="504" 
d="M401 533h-75l-67 104l-67 -104h-75l95 146h95zM450 262l-1 -43h-327c2 -98 45 -163 149 -163c47 0 95 18 125 56l45 -45c-42 -54 -102 -76 -170 -76c-155 0 -216 105 -216 248c0 135 58 253 207 253c134 0 189 -109 188 -230zM383 284c-4 77 -36 143 -121 143
c-88 0 -131 -59 -138 -143h259z" />
    <glyph glyph-name="edieresis" unicode="&#xeb;" horiz-adv-x="504" 
d="M406 593c0 -28 -22 -51 -50 -51c-29 0 -51 23 -51 51s22 51 51 51c28 0 50 -23 50 -51zM209 593c0 -28 -23 -51 -51 -51s-51 23 -51 51s23 51 51 51s51 -23 51 -51zM450 262l-1 -43h-327c2 -98 45 -163 149 -163c47 0 95 18 125 56l45 -45c-42 -54 -102 -76 -170 -76
c-155 0 -216 105 -216 248c0 135 58 253 207 253c134 0 189 -109 188 -230zM383 284c-4 77 -36 143 -121 143c-88 0 -131 -59 -138 -143h259z" />
    <glyph glyph-name="iacute" unicode="&#xed;" horiz-adv-x="232" 
d="M223 691l-95 -146h-66l85 146h76zM150 0h-68v484h68v-484z" />
    <glyph glyph-name="igrave" unicode="&#xec;" horiz-adv-x="232" 
d="M175 545h-66l-95 146h76zM150 0h-68v484h68v-484z" />
    <glyph glyph-name="icircumflex" unicode="&#xee;" horiz-adv-x="232" 
d="M259 533h-75l-67 104l-67 -104h-75l95 146h95zM150 0h-68v484h68v-484z" />
    <glyph glyph-name="idieresis" unicode="&#xef;" horiz-adv-x="232" 
d="M259 593c0 -28 -22 -51 -50 -51c-29 0 -51 23 -51 51s22 51 51 51c28 0 50 -23 50 -51zM72 593c0 -28 -23 -51 -51 -51s-50 23 -50 51s22 51 50 51s51 -23 51 -51zM150 0h-68v484h68v-484z" />
    <glyph glyph-name="ntilde" unicode="&#xf1;" horiz-adv-x="503" 
d="M425 596c-25 -33 -49 -58 -93 -58c-54 0 -105 43 -144 43c-23 0 -32 -18 -44 -34l-49 40c24 31 52 58 94 58c55 0 100 -43 142 -43c24 0 32 17 45 34zM448 0h-66v281c0 94 -28 145 -129 145c-72 0 -121 -57 -121 -127v-299h-67v484h67v-46c29 34 76 54 121 54
c135 0 195 -75 195 -206v-286z" />
    <glyph glyph-name="oacute" unicode="&#xf3;" 
d="M375 691l-95 -146h-66l85 146h76zM464 242c0 -138 -48 -249 -204 -249s-205 111 -205 248c0 138 49 251 205 251s204 -113 204 -250zM397 241c0 99 -20 185 -138 185c-117 0 -137 -86 -137 -185c0 -98 20 -183 137 -183s138 85 138 183z" />
    <glyph glyph-name="ograve" unicode="&#xf2;" 
d="M318 545h-66l-95 146h76zM464 242c0 -138 -48 -249 -204 -249s-205 111 -205 248c0 138 49 251 205 251s204 -113 204 -250zM397 241c0 99 -20 185 -138 185c-117 0 -137 -86 -137 -185c0 -98 20 -183 137 -183s138 85 138 183z" />
    <glyph glyph-name="ocircumflex" unicode="&#xf4;" 
d="M397 533h-75l-67 104l-67 -104h-75l95 146h95zM464 242c0 -138 -48 -249 -204 -249s-205 111 -205 248c0 138 49 251 205 251s204 -113 204 -250zM397 241c0 99 -20 185 -138 185c-117 0 -137 -86 -137 -185c0 -98 20 -183 137 -183s138 85 138 183z" />
    <glyph glyph-name="odieresis" unicode="&#xf6;" 
d="M411 593c0 -28 -22 -51 -50 -51c-29 0 -51 23 -51 51s22 51 51 51c28 0 50 -23 50 -51zM214 593c0 -28 -23 -51 -51 -51s-51 23 -51 51s23 51 51 51s51 -23 51 -51zM464 242c0 -138 -48 -249 -204 -249s-205 111 -205 248c0 138 49 251 205 251s204 -113 204 -250z
M397 241c0 99 -20 185 -138 185c-117 0 -137 -86 -137 -185c0 -98 20 -183 137 -183s138 85 138 183z" />
    <glyph glyph-name="otilde" unicode="&#xf5;" 
d="M427 596c-25 -33 -49 -58 -93 -58c-54 0 -105 43 -144 43c-23 0 -32 -18 -44 -34l-49 40c24 31 52 58 94 58c55 0 100 -43 142 -43c24 0 32 17 45 34zM464 242c0 -138 -48 -249 -204 -249s-205 111 -205 248c0 138 49 251 205 251s204 -113 204 -250zM397 241
c0 99 -20 185 -138 185c-117 0 -137 -86 -137 -185c0 -98 20 -183 137 -183s138 85 138 183z" />
    <glyph glyph-name="uacute" unicode="&#xfa;" horiz-adv-x="528" 
d="M375 691l-95 -146h-66l85 146h76zM453 0h-66v36c-33 -29 -78 -44 -121 -44c-136 0 -196 66 -196 215v277h67v-277c0 -96 27 -150 129 -150c62 0 121 40 121 108v319h66v-484z" />
    <glyph glyph-name="ugrave" unicode="&#xf9;" horiz-adv-x="528" 
d="M312 545h-66l-95 146h76zM453 0h-66v36c-33 -29 -78 -44 -121 -44c-136 0 -196 66 -196 215v277h67v-277c0 -96 27 -150 129 -150c62 0 121 40 121 108v319h66v-484z" />
    <glyph glyph-name="ucircumflex" unicode="&#xfb;" horiz-adv-x="528" 
d="M401 533h-76l-67 104l-67 -104h-75l95 146h95zM453 0h-66v36c-33 -29 -78 -44 -121 -44c-136 0 -196 66 -196 215v277h67v-277c0 -96 27 -150 129 -150c62 0 121 40 121 108v319h66v-484z" />
    <glyph glyph-name="udieresis" unicode="&#xfc;" horiz-adv-x="528" 
d="M411 593c0 -28 -22 -51 -50 -51c-29 0 -51 23 -51 51s22 51 51 51c28 0 50 -23 50 -51zM214 593c0 -28 -23 -51 -51 -51s-51 23 -51 51s23 51 51 51s51 -23 51 -51zM453 0h-66v36c-33 -29 -78 -44 -121 -44c-136 0 -196 66 -196 215v277h67v-277c0 -96 27 -150 129 -150
c62 0 121 40 121 108v319h66v-484z" />
    <glyph glyph-name="dagger" unicode="&#x2020;" horiz-adv-x="499" 
d="M444 416h-162v-416h-65v416h-162v68h162v214h65v-214h162v-68z" />
    <glyph glyph-name="degree" unicode="&#xb0;" horiz-adv-x="286" 
d="M241 661c0 -54 -44 -98 -98 -98s-98 44 -98 98s44 98 98 98s98 -44 98 -98zM187 661c0 24 -20 44 -44 44c-25 0 -44 -20 -44 -44c0 -25 19 -44 44 -44c24 0 44 19 44 44z" />
    <glyph glyph-name="cent" unicode="&#xa2;" horiz-adv-x="476" 
d="M431 407l-49 -45c-34 39 -57 54 -85 60l-78 -364c14 -4 28 -5 43 -5c46 0 75 12 120 63l49 -44c-59 -65 -102 -83 -169 -83c-20 0 -38 2 -56 6l-18 -83l-56 12l20 92c-69 40 -107 119 -107 223c0 149 78 246 208 250l16 77l56 -12l-14 -69c42 -8 75 -29 120 -78zM239 424
c-39 -5 -72 -24 -94 -56s-30 -66 -30 -129c0 -57 6 -113 52 -153z" />
    <glyph glyph-name="sterling" unicode="&#xa3;" horiz-adv-x="518" 
d="M473 607l-51 -44c-37 43 -67 70 -141 70c-37 0 -69 -13 -89 -36s-31 -58 -31 -102c0 -38 8 -75 15 -112h128l-14 -66h-100c6 -35 11 -68 11 -103c0 -44 -8 -91 -28 -147h287v-67h-367v51c52 116 45 180 28 266h-76l14 66h48c-3 17 -6 36 -9 55c-16 107 14 169 43 203
c34 39 83 60 140 60c102 0 148 -43 192 -94z" />
    <glyph glyph-name="section" unicode="&#xa7;" horiz-adv-x="512" 
d="M447 223c0 -58 -18 -107 -53 -141c21 -24 33 -56 33 -99c0 -107 -71 -183 -173 -183c-74 0 -130 46 -185 147l60 32c44 -82 81 -111 125 -111c63 0 106 45 106 115c0 53 -23 77 -112 99c-121 29 -183 90 -183 189c0 58 18 106 54 140c-21 24 -34 57 -34 100
c0 106 71 182 174 182c73 0 130 -46 184 -146l-60 -32c-44 82 -81 110 -124 110c-64 0 -106 -44 -106 -114c0 -54 22 -78 111 -99c121 -29 183 -91 183 -189zM380 223c0 62 -38 101 -132 123c-25 6 -50 14 -73 24c-27 -20 -42 -53 -42 -99c0 -62 37 -101 131 -123
c25 -7 51 -14 73 -25c28 21 43 54 43 100z" />
    <glyph glyph-name="bullet" unicode="&#x2022;" horiz-adv-x="439" 
d="M374 338c0 -85 -69 -155 -154 -155c-86 0 -155 70 -155 155c0 86 69 155 155 155c85 0 154 -69 154 -155z" />
    <glyph glyph-name="paragraph" unicode="&#xb6;" horiz-adv-x="567" 
d="M482 -151h-69v767h-100v-767h-69v452c-105 5 -189 92 -189 198c0 110 89 199 199 199h228v-849z" />
    <glyph glyph-name="germandbls" unicode="&#xdf;" horiz-adv-x="502" 
d="M457 239c0 -143 -57 -237 -210 -241v66c119 3 143 72 143 177c0 40 -3 90 -24 124c-24 37 -70 52 -112 53c-3 1 -5 0 -8 0v67c43 0 66 34 66 73c0 40 -32 83 -74 83c-95 0 -106 -76 -106 -154v-487h-67v418h-44v66h44c0 123 34 222 173 222c79 0 141 -72 141 -148
c0 -33 -17 -67 -39 -93c100 -39 117 -133 117 -226z" />
    <glyph glyph-name="registered" unicode="&#xae;" horiz-adv-x="790" 
d="M745 348c0 -193 -156 -350 -350 -350c-193 0 -350 157 -350 350s157 350 350 350c194 0 350 -157 350 -350zM684 348c0 159 -130 289 -289 289s-288 -130 -288 -289s129 -288 288 -288s289 129 289 288zM562 155h-77l-74 123c-9 15 -19 36 -40 36h-37v-159h-66v386h140
c25 0 57 -2 83 -18c31 -20 48 -55 48 -95c0 -53 -27 -94 -76 -108l4 -8zM473 427c0 20 -7 33 -17 39c-12 7 -30 9 -48 9h-74v-95h74c35 0 65 4 65 47z" />
    <glyph glyph-name="copyright" unicode="&#xa9;" horiz-adv-x="790" 
d="M745 348c0 -193 -156 -350 -350 -350c-193 0 -350 157 -350 350s157 350 350 350c194 0 350 -157 350 -350zM684 348c0 159 -130 289 -289 289s-288 -130 -288 -289s129 -288 288 -288s289 129 289 288zM530 478l-51 -43c-34 42 -51 46 -76 46c-31 0 -55 -13 -71 -37
c-14 -23 -20 -48 -20 -96s6 -73 20 -95c16 -25 40 -38 71 -38c25 0 42 5 76 46l51 -43c-43 -52 -77 -69 -127 -69c-53 0 -99 24 -127 68c-22 34 -30 72 -30 131s8 97 30 132c28 43 74 68 127 68c50 0 84 -18 127 -70z" />
    <glyph glyph-name="trademark" unicode="&#x2122;" horiz-adv-x="483" 
d="M423 489h-29v140l-56 -140h-29l-56 140v-140h-28v209h29l70 -174l69 174h30v-209zM205 670h-68v-181h-29v181h-68v28h165v-28z" />
    <glyph glyph-name="acute" unicode="&#xb4;" horiz-adv-x="291" 
d="M226 691l-95 -146h-66l85 146h76z" />
    <glyph glyph-name="dieresis" unicode="&#xa8;" horiz-adv-x="439" 
d="M374 593c0 -28 -23 -51 -51 -51s-51 23 -51 51s23 51 51 51s51 -23 51 -51zM167 593c0 -28 -23 -51 -51 -51s-51 23 -51 51s23 51 51 51s51 -23 51 -51z" />
    <glyph glyph-name="notequal" unicode="&#x2260;" horiz-adv-x="526" 
d="M471 129h-224l-38 -105l-50 18l31 87h-135v64h159l42 115h-201v64h224l38 105l50 -18l-31 -87h135v-64h-158l-42 -115h200v-64z" />
    <glyph glyph-name="AE" unicode="&#xc6;" horiz-adv-x="919" 
d="M874 0h-425v207h-257l-100 -207h-77l336 698h523v-69h-355v-231h307v-69h-307v-260h355v-69zM449 274v355h-54l-171 -355h225z" />
    <glyph glyph-name="Oslash" unicode="&#xd8;" horiz-adv-x="646" 
d="M611 349c0 -180 -67 -358 -278 -358c-61 0 -110 15 -149 41l-18 -32h-76l43 78c-56 69 -78 170 -78 271c0 180 68 358 278 358c52 0 95 -11 131 -30l12 21h76l-34 -61c68 -69 93 -178 93 -288zM542 349c0 82 -14 167 -59 224l-265 -480c29 -20 67 -33 115 -33
c169 0 209 150 209 289zM430 616c-26 14 -58 22 -97 22c-169 0 -208 -150 -208 -289c0 -73 10 -148 45 -204z" />
    <glyph glyph-name="infinity" unicode="&#x221e;" horiz-adv-x="766" 
d="M721 261c2 -37 -9 -69 -33 -94c-39 -38 -92 -42 -107 -42c-75 0 -155 59 -198 94c-43 -35 -123 -94 -198 -94c-66 1 -135 42 -140 133c-2 36 10 69 34 93c38 39 91 42 106 42c75 0 155 -59 198 -94c43 35 123 94 198 94c66 0 135 -42 140 -132zM658 258
c-4 70 -64 74 -77 74c-49 0 -109 -41 -149 -73c40 -31 100 -73 149 -73c18 0 44 7 61 23c11 12 17 28 16 49zM334 259c-40 32 -100 73 -149 73c-18 0 -44 -6 -61 -23c-11 -12 -17 -28 -16 -48c4 -71 64 -75 77 -75c49 0 109 42 149 73z" />
    <glyph glyph-name="plusminus" unicode="&#xb1;" horiz-adv-x="521" 
d="M466 274h-171v-168h-69v168h-171v68h171v168h69v-168h171v-68zM466 0h-411v67h411v-67z" />
    <glyph glyph-name="lessequal" unicode="&#x2264;" horiz-adv-x="480" 
d="M425 82l-370 169v65l370 169v-74l-280 -128l280 -128v-73zM425 0h-370v68h370v-68z" />
    <glyph glyph-name="greaterequal" unicode="&#x2265;" horiz-adv-x="480" 
d="M425 251l-370 -169v73l280 128l-280 128v74l370 -169v-65zM425 0h-370v68h370v-68z" />
    <glyph glyph-name="yen" unicode="&#xa5;" horiz-adv-x="597" 
d="M562 698l-154 -315h86l-14 -66h-105l-32 -66h151l-14 -66h-147v-185h-69v185h-161l14 66h138l-32 66h-120l14 66h73l-155 315h77l187 -379l186 379h77z" />
    <glyph glyph-name="mu" unicode="&#xb5;" horiz-adv-x="513" 
d="M448 0h-66v28c-33 -25 -75 -39 -121 -39c-51 0 -96 14 -129 40v-225h-67v404v270h67v-270c0 -38 3 -78 22 -107c19 -28 57 -46 107 -46c47 0 86 21 105 54c7 13 12 27 16 42v327h66v-478z" />
    <glyph glyph-name="partialdiff" unicode="&#x2202;" horiz-adv-x="497" 
d="M442 209c0 -117 -88 -212 -198 -212c-111 0 -198 93 -198 210c0 116 87 216 198 216c45 0 88 -19 121 -47c-13 196 -97 246 -117 253c-36 12 -80 -6 -126 -64l-51 41c61 78 132 111 199 88c68 -24 170 -117 172 -468v-17zM375 210c0 81 -60 145 -131 145
c-72 0 -130 -67 -130 -148c0 -82 58 -143 130 -143c71 0 131 64 131 146z" />
    <glyph glyph-name="summation" unicode="&#x2211;" horiz-adv-x="516" 
d="M461 -220h-406v60l252 399l-252 400v59h406v-68h-321l247 -391l-247 -391h321v-68z" />
    <glyph glyph-name="product" unicode="&#x220f;" horiz-adv-x="599" 
d="M524 -197h-67v882h-315v-882h-67v949h449v-949z" />
    <glyph glyph-name="pi" unicode="&#x3c0;" horiz-adv-x="540" 
d="M495 0h-28c-36 0 -68 15 -86 43c-15 24 -17 51 -17 74v296h-232v-413h-67v478h365v-361c0 -18 2 -32 9 -41c6 -7 14 -10 28 -10h28v-66z" />
    <glyph glyph-name="integral" unicode="&#x222b;" horiz-adv-x="322" 
d="M287 631h-57c-15 0 -24 -4 -29 -12c-6 -9 -7 -23 -7 -40v-656c0 -22 -2 -51 -18 -75c-17 -28 -48 -44 -84 -44h-57v67h57c14 0 22 4 28 11c7 9 8 24 8 41v656c0 23 2 51 17 76c18 28 49 43 85 43h57v-67z" />
    <glyph glyph-name="ordfeminine" unicode="&#xaa;" horiz-adv-x="401" 
d="M356 322l-61 -18l-8 25c-25 -16 -60 -30 -106 -30c-74 0 -136 55 -136 123s62 123 136 123h65c17 0 27 5 35 13v32c0 29 -28 53 -70 53c-27 0 -78 -12 -93 -61l-61 18c23 77 94 107 154 107c74 0 134 -51 134 -117v-231zM273 194h-147v63h147v-63zM281 405v81
c-10 -3 -22 -5 -35 -5h-65c-41 0 -72 -27 -72 -59c0 -31 31 -59 72 -59c49 0 78 20 100 42z" />
    <glyph glyph-name="ordmasculine" unicode="&#xba;" horiz-adv-x="426" 
d="M381 503c0 -38 -2 -90 -28 -131c-27 -46 -79 -72 -140 -72c-60 0 -113 26 -140 72c-25 41 -28 91 -28 130v1c0 42 3 91 28 132c27 45 80 72 140 72c61 0 113 -26 140 -72c25 -41 28 -90 28 -132zM287 194h-147v63h147v-63zM317 503c0 35 -2 73 -18 99
c-23 37 -67 41 -86 41s-63 -4 -85 -41c-16 -26 -19 -64 -19 -99c0 -32 2 -71 19 -99c22 -36 66 -41 85 -41s64 5 86 41c16 28 18 67 18 99z" />
    <glyph glyph-name="Omega" unicode="&#x2126;" horiz-adv-x="606" 
d="M551 348c0 -106 -13 -171 -45 -231c-11 -20 -25 -38 -39 -53h72l11 -64h-191v73c39 14 66 39 87 76c26 49 37 102 37 199s-10 151 -37 199c-30 55 -75 82 -129 82h-28c-55 0 -99 -27 -129 -82c-27 -48 -37 -102 -37 -199s10 -150 37 -199c20 -37 48 -62 87 -76v-73h-191
l11 64h72c-15 15 -28 33 -39 53c-33 60 -45 125 -45 231s12 172 45 231c41 76 109 118 189 118h28c80 0 147 -42 189 -118c32 -59 45 -125 45 -231z" />
    <glyph glyph-name="ae" unicode="&#xe6;" horiz-adv-x="787" 
d="M742 220h-331c1 -37 7 -79 26 -108c22 -34 69 -56 125 -56c53 0 96 18 126 56l53 -40c-43 -55 -107 -81 -179 -81c-71 -1 -133 25 -171 70c-52 -47 -112 -71 -179 -71c-91 0 -167 65 -167 146c0 82 76 149 167 149h82c26 0 41 10 53 22l1 5l-3 44c-2 37 -41 68 -95 68
c-50 1 -108 -23 -126 -82l-65 19c29 93 117 129 191 129c61 0 114 -27 142 -70c37 46 93 70 161 70s124 -30 160 -85c33 -50 30 -128 29 -185zM675 285c-2 32 -8 67 -19 84c-24 38 -58 55 -103 55c-54 1 -92 -18 -116 -55c-15 -22 -22 -54 -24 -84h262zM358 122
c-11 34 -14 74 -14 106c-14 -5 -31 -8 -50 -8h-82c-57 0 -100 -41 -100 -84s43 -80 100 -80c55 0 102 20 146 66z" />
    <glyph glyph-name="oslash" unicode="&#xf8;" horiz-adv-x="499" 
d="M454 238c0 -48 -3 -111 -34 -161c-33 -55 -96 -86 -170 -86c-33 -1 -64 6 -92 18l-9 -18h-71l29 52c-54 51 -62 127 -62 195c0 50 4 111 34 160c33 55 97 86 171 86c32 0 62 -6 89 -17l11 20h71l-30 -54c55 -51 63 -126 63 -195zM387 237c0 45 -3 93 -24 127
c-2 3 -4 5 -6 8l-167 -305c17 -7 37 -11 59 -11c53 0 93 21 114 55c21 35 24 85 24 126zM307 409c-17 6 -36 10 -58 10c-51 0 -92 -21 -113 -55s-24 -82 -24 -127c0 -43 3 -97 28 -132z" />
    <glyph glyph-name="questiondown" unicode="&#xbf;" horiz-adv-x="497" 
d="M305 445c0 -28 -22 -50 -49 -50c-28 0 -50 22 -50 50c0 27 22 49 50 49c27 0 49 -22 49 -49zM457 -28c0 -123 -97 -192 -200 -192c-106 0 -197 71 -197 186c0 74 44 113 86 138c50 30 80 52 83 119l4 89h49s8 -62 8 -89c0 -97 -45 -130 -87 -157
c-40 -25 -76 -43 -76 -100c0 -75 58 -118 130 -118c69 0 136 42 136 124h64z" />
    <glyph glyph-name="exclamdown" unicode="&#xa1;" horiz-adv-x="280" 
d="M180 445c0 -28 -23 -50 -50 -50c-28 0 -50 22 -50 50c0 27 22 49 50 49c27 0 50 -22 50 -49zM164 -212h-69v337l5 195h59l5 -195v-337z" />
    <glyph glyph-name="logicalnot" unicode="&#xac;" horiz-adv-x="521" 
d="M466 93h-63v135h-358v63h421v-198z" />
    <glyph glyph-name="radical" unicode="&#x221a;" horiz-adv-x="618" 
d="M583 626h-97l-172 -626h-65l-194 485h73c35 -88 111 -277 148 -368l158 576h149v-67z" />
    <glyph glyph-name="florin" unicode="&#x192;" horiz-adv-x="372" 
d="M347 698v-66c-99 0 -131 -58 -146 -144l-9 -52h75v-67h-87l-100 -571l-65 12l98 559h-60v67h71l12 63c7 42 19 91 51 131c36 44 90 68 160 68z" />
    <glyph glyph-name="approxequal" unicode="&#x2248;" horiz-adv-x="527" 
d="M482 360l-14 -13c-72 -67 -146 -43 -213 -21c-57 20 -109 38 -149 1l-14 -13l-47 46c74 69 126 69 230 33c101 -36 125 -19 146 0l13 13zM482 205l-14 -12c-72 -67 -146 -44 -213 -21c-57 19 -109 38 -149 0l-14 -12l-47 45c74 70 126 70 230 33c101 -36 125 -19 146 0
l13 13z" />
    <glyph glyph-name="Delta" unicode="&#x2206;" horiz-adv-x="588" 
d="M573 0h-558l279 712zM476 64l-182 465l-182 -465h364z" />
    <glyph glyph-name="guillemotleft" unicode="&#xab;" horiz-adv-x="481" 
d="M426 398l-147 -140l147 -140v-92l-214 205v54l214 204v-91zM259 398l-147 -140l147 -140v-92l-214 205v54l213 204z" />
    <glyph glyph-name="guillemotright" unicode="&#xbb;" horiz-adv-x="481" 
d="M436 231l-214 -205v92l146 140l-146 140v91l214 -204v-54zM269 231l-214 -205v92l146 140l-146 140v91l214 -204v-54z" />
    <glyph glyph-name="ellipsis" unicode="&#x2026;" horiz-adv-x="689" 
d="M614 45c0 -30 -24 -53 -53 -53c-30 0 -53 23 -53 53c0 29 23 53 53 53c29 0 53 -24 53 -53zM398 45c0 -30 -24 -53 -53 -53c-30 0 -54 23 -54 53c0 29 24 53 54 53c29 0 53 -24 53 -53zM182 45c0 -30 -24 -53 -54 -53c-29 0 -53 23 -53 53c0 29 24 53 53 53
c30 0 54 -24 54 -53z" />
    <glyph glyph-name="nbspace" horiz-adv-x="135" 
 />
    <glyph glyph-name="Agrave" unicode="&#xc0;" horiz-adv-x="656" 
d="M372 775h-67l-95 146h76zM636 0h-75l-80 207h-306l-81 -207h-74l270 698h76zM456 274l-128 330l-128 -330h256z" />
    <glyph glyph-name="Atilde" unicode="&#xc3;" horiz-adv-x="656" 
d="M495 816l-9 -11c-51 -66 -109 -48 -158 -27c-38 16 -72 35 -93 16c-8 -8 -15 -18 -22 -26l-49 40c52 66 96 73 179 32c20 -9 60 -29 81 -10c8 7 15 18 22 26zM636 0h-75l-80 207h-306l-81 -207h-74l270 698h76zM456 274l-128 330l-128 -330h256z" />
    <glyph glyph-name="Otilde" unicode="&#xd5;" horiz-adv-x="666" 
d="M493 816l-8 -11c-52 -66 -109 -48 -158 -27c-39 16 -72 35 -94 16c-8 -8 -15 -18 -21 -26l-49 40c52 66 96 73 179 32c19 -9 59 -29 81 -10c8 7 15 18 21 26zM611 349c0 -110 -15 -177 -55 -239c-50 -77 -129 -119 -223 -119s-173 42 -223 119c-40 62 -55 129 -55 239
s15 178 55 239c50 77 129 119 223 119s173 -42 223 -119c40 -62 55 -129 55 -239zM542 349c0 99 -13 153 -45 202c-37 57 -93 87 -164 87s-127 -30 -164 -87c-32 -49 -44 -103 -44 -202s12 -153 44 -202c37 -57 93 -87 164 -87s127 30 164 87c32 49 45 103 45 202z" />
    <glyph glyph-name="OE" unicode="&#x152;" horiz-adv-x="1006" 
d="M961 0h-425v91c-51 -65 -125 -100 -211 -100c-94 0 -174 42 -224 119c-41 62 -56 129 -56 239s15 178 56 239c50 77 130 119 224 119c86 0 160 -35 210 -99v90h426v-68h-356v-232h308v-69h-308v-261h356v-68zM535 349c0 99 -12 153 -44 202c-38 57 -95 87 -166 87
s-128 -30 -165 -87c-33 -49 -45 -103 -45 -202s12 -153 45 -202c37 -57 94 -87 165 -87s128 30 166 87c32 49 44 103 44 202z" />
    <glyph glyph-name="oe" unicode="&#x153;" horiz-adv-x="836" 
d="M791 220h-332c2 -37 7 -79 26 -108c23 -34 69 -56 125 -56c53 0 97 18 127 56l53 -40c-44 -55 -107 -81 -179 -81c-73 -1 -146 26 -185 89c-36 -61 -104 -89 -174 -89c-74 -1 -139 31 -173 86c-31 50 -34 116 -34 163c0 51 4 115 34 164c34 54 99 86 173 86
c70 0 138 -28 174 -89c38 61 103 89 175 89c68 0 124 -30 161 -85c32 -50 29 -128 29 -185zM723 285c-1 32 -7 67 -18 84c-25 38 -58 55 -104 55c-53 1 -92 -18 -116 -55c-15 -22 -21 -54 -24 -84h262zM391 240c0 45 -3 96 -25 130c-20 34 -62 54 -114 54
c-53 1 -94 -20 -115 -54c-21 -35 -24 -85 -25 -130c0 -41 3 -94 25 -129c21 -34 62 -55 115 -55c52 0 94 21 114 55c22 35 25 88 25 129z" />
    <glyph glyph-name="endash" unicode="&#x2013;" horiz-adv-x="514" 
d="M459 243h-404v61h404v-61z" />
    <glyph glyph-name="emdash" unicode="&#x2014;" horiz-adv-x="812" 
d="M757 243h-702v61h702v-61z" />
    <glyph glyph-name="quotedblleft" unicode="&#x201c;" horiz-adv-x="383" 
d="M313 752l-7 -178c-1 -24 -20 -43 -45 -43s-48 20 -45 43l7 57l78 121h12zM167 752l-7 -178c-1 -24 -20 -43 -45 -43s-48 20 -45 43l7 57l78 121h12z" />
    <glyph glyph-name="quotedblright" unicode="&#x201d;" horiz-adv-x="383" 
d="M312 709l-7 -57l-77 -121h-12l7 178c1 24 20 43 44 43c25 0 48 -19 45 -43zM167 709l-7 -57l-78 -121h-12l7 178c1 24 20 43 45 43s48 -19 45 -43z" />
    <glyph glyph-name="quoteleft" unicode="&#x2018;" horiz-adv-x="237" 
d="M167 752l-7 -178c-1 -24 -20 -43 -45 -43s-48 20 -45 43l7 57l78 121h12z" />
    <glyph glyph-name="quoteright" unicode="&#x2019;" horiz-adv-x="237" 
d="M167 709l-7 -57l-78 -121h-12l7 178c1 24 20 43 45 43s48 -19 45 -43z" />
    <glyph glyph-name="divide" unicode="&#xf7;" horiz-adv-x="514" 
d="M303 429c0 -26 -21 -48 -48 -48s-48 22 -48 48c0 27 21 49 48 49s48 -22 48 -49zM459 243h-404v61h404v-61zM303 119c0 -27 -21 -49 -48 -49s-48 22 -48 49c0 26 21 48 48 48s48 -22 48 -48z" />
    <glyph glyph-name="lozenge" unicode="&#x25ca;" horiz-adv-x="541" 
d="M486 345l-215 -350l-216 350l216 349zM413 345l-142 231l-143 -231l143 -232z" />
    <glyph glyph-name="ydieresis" unicode="&#xff;" horiz-adv-x="487" 
d="M392 593c0 -28 -23 -51 -51 -51s-51 23 -51 51s23 51 51 51s51 -23 51 -51zM195 593c0 -28 -23 -51 -51 -51s-51 23 -51 51s23 51 51 51s51 -23 51 -51zM457 484l-224 -603c-23 -62 -67 -102 -136 -101h-29l1 67l20 -1c46 0 65 16 81 59l36 95l-176 484h71l141 -389
l143 389h72z" />
    <glyph glyph-name="Ydieresis" unicode="&#x178;" horiz-adv-x="597" 
d="M455 826c0 -28 -23 -51 -51 -51s-51 23 -51 51s23 51 51 51s51 -23 51 -51zM248 826c0 -28 -23 -51 -51 -51s-51 23 -51 51s23 51 51 51s51 -23 51 -51zM562 698l-229 -467v-231h-69v233l-229 465h77l187 -379l186 379h77z" />
    <glyph glyph-name="fraction" unicode="&#x2044;" horiz-adv-x="137" 
d="M253 698l-309 -698h-60l308 698h61z" />
    <glyph glyph-name="currency" unicode="&#xa4;" horiz-adv-x="631" 
d="M569 58c-54 -50 -113 -67 -185 -67c-148 0 -249 101 -275 243h-76l14 62h55c-1 22 -2 52 -1 74h-68l14 62h57c16 157 115 275 280 275c73 0 127 -17 181 -67l-36 -61c-45 43 -83 59 -145 59c-126 0 -195 -88 -209 -206h257l-14 -62h-247v-28c0 -14 1 -32 2 -46h259
l-14 -62h-237c23 -103 95 -174 203 -174c62 0 101 16 146 59z" />
    <glyph glyph-name="guilsinglleft" unicode="&#x2039;" horiz-adv-x="314" 
d="M259 398l-147 -140l147 -140v-92l-214 205v54l213 204z" />
    <glyph glyph-name="guilsinglright" unicode="&#x203a;" horiz-adv-x="314" 
d="M269 231l-214 -205v92l146 140l-146 140v91l214 -204v-54z" />
    <glyph glyph-name="fi" unicode="&#xfb01;" horiz-adv-x="476" 
d="M411 662c0 -25 -21 -46 -46 -46c-26 0 -46 21 -46 46c0 26 20 46 46 46c25 0 46 -20 46 -46zM394 0h-66v418h-170v-418h-66v418h-47v66h47v11c0 41 3 91 29 132c30 47 82 71 153 71v-66c-97 0 -116 -54 -116 -137v-10h236v-485z" />
    <glyph glyph-name="fl" unicode="&#xfb02;" horiz-adv-x="499" 
d="M444 0c-46 0 -78 15 -96 43c-16 25 -18 53 -18 75v514h-66c-24 0 -65 -6 -87 -41c-17 -25 -19 -62 -19 -96v-11h102v-66h-102v-418h-67v418h-46v66h46v11c0 41 3 91 30 132c30 46 81 71 143 71h133v-580c0 -21 2 -35 12 -43c7 -6 18 -9 34 -9z" />
    <glyph glyph-name="daggerdbl" unicode="&#x2021;" horiz-adv-x="499" 
d="M444 16h-161v-216h-66v216h-162v67h162v332h-162v67h162v216h66v-216h161v-67h-161v-332h161v-67z" />
    <glyph glyph-name="periodcentered" unicode="&#xb7;" horiz-adv-x="237" 
d="M172 265c0 -30 -24 -54 -54 -54c-29 0 -53 24 -53 54c0 29 24 53 53 53c30 0 54 -24 54 -53z" />
    <glyph glyph-name="quotesinglbase" unicode="&#x201a;" horiz-adv-x="237" 
d="M167 57l-7 -57l-78 -121h-12l7 178c1 24 20 43 45 43s48 -19 45 -43z" />
    <glyph glyph-name="quotedblbase" unicode="&#x201e;" horiz-adv-x="383" 
d="M312 57l-7 -57l-77 -121h-12l7 178c1 24 20 43 44 43c25 0 48 -19 45 -43zM167 57l-7 -57l-78 -121h-12l7 178c1 24 20 43 45 43s48 -19 45 -43z" />
    <glyph glyph-name="perthousand" unicode="&#x2030;" horiz-adv-x="1002" 
d="M957 189c0 -60 -7 -97 -28 -132c-27 -43 -70 -67 -120 -67c-51 0 -94 23 -120 67c-26 -44 -69 -67 -120 -67c-50 0 -93 24 -120 67c-21 35 -28 72 -28 132c0 59 7 96 28 131c27 43 70 68 120 68c51 0 94 -24 120 -68c26 44 69 68 120 68c50 0 93 -25 120 -68
c21 -35 28 -72 28 -131zM567 698l-305 -698h-69l306 698h68zM340 509c0 -60 -8 -97 -29 -131c-26 -44 -68 -68 -118 -68c-51 0 -93 24 -120 68c-20 34 -28 71 -28 131c0 59 8 97 28 131c27 44 69 68 120 68c50 0 92 -24 119 -68c20 -34 28 -72 28 -131zM900 189
c0 50 -6 77 -20 101c-16 27 -41 41 -71 41c-31 0 -55 -14 -71 -41c-13 -21 -20 -45 -20 -87c-1 -4 0 -9 0 -14s-1 -10 0 -15c0 -41 7 -65 20 -87c16 -27 40 -40 71 -40c30 0 55 13 71 40c14 24 20 51 20 102zM660 174v15v14c-1 42 -7 66 -20 87c-16 27 -40 41 -71 41
c-30 0 -55 -14 -71 -41c-14 -24 -20 -51 -20 -101c0 -51 6 -78 20 -102c16 -27 41 -40 71 -40c31 0 55 13 71 40c13 22 19 46 20 87zM283 509c0 50 -6 77 -20 102c-16 26 -40 40 -70 40c-31 0 -55 -14 -71 -40c-14 -25 -20 -52 -20 -102c0 -51 6 -78 20 -102
c16 -26 40 -40 71 -40c30 0 54 14 70 40c14 24 20 51 20 102z" />
    <glyph glyph-name="Acircumflex" unicode="&#xc2;" horiz-adv-x="656" 
d="M480 775h-85l-67 104l-67 -104h-86l105 146h95zM636 0h-75l-80 207h-306l-81 -207h-74l270 698h76zM456 274l-128 330l-128 -330h256z" />
    <glyph glyph-name="Ecircumflex" unicode="&#xca;" horiz-adv-x="589" 
d="M455 775h-85l-67 104l-67 -104h-85l105 146h95zM529 0h-444v698h444v-69h-375v-231h328v-69h-328v-260h375v-69z" />
    <glyph glyph-name="Aacute" unicode="&#xc1;" horiz-adv-x="656" 
d="M437 921l-95 -146h-67l86 146h76zM636 0h-75l-80 207h-306l-81 -207h-74l270 698h76zM456 274l-128 330l-128 -330h256z" />
    <glyph glyph-name="Edieresis" unicode="&#xcb;" horiz-adv-x="589" 
d="M457 826c0 -28 -23 -51 -51 -51s-51 23 -51 51s23 51 51 51s51 -23 51 -51zM250 826c0 -28 -23 -51 -51 -51s-51 23 -51 51s23 51 51 51s51 -23 51 -51zM529 0h-444v698h444v-69h-375v-231h328v-69h-328v-260h375v-69z" />
    <glyph glyph-name="Egrave" unicode="&#xc8;" horiz-adv-x="589" 
d="M353 775h-66l-95 146h76zM529 0h-444v698h444v-69h-375v-231h328v-69h-328v-260h375v-69z" />
    <glyph glyph-name="Iacute" unicode="&#xcd;" horiz-adv-x="241" 
d="M226 921l-95 -146h-66l85 146h76zM155 0h-71v698h71v-698z" />
    <glyph glyph-name="Icircumflex" unicode="&#xce;" horiz-adv-x="324" 
d="M314 775h-85l-67 104l-67 -104h-85l105 146h95zM195 0h-70v698h70v-698z" />
    <glyph glyph-name="Idieresis" unicode="&#xcf;" horiz-adv-x="309" 
d="M299 826c0 -28 -23 -51 -51 -51s-51 23 -51 51s23 51 51 51s51 -23 51 -51zM112 826c0 -28 -23 -51 -51 -51s-51 23 -51 51s23 51 51 51s51 -23 51 -51zM190 0h-71v698h71v-698z" />
    <glyph glyph-name="Igrave" unicode="&#xcc;" horiz-adv-x="241" 
d="M176 775h-66l-95 146h76zM152 0h-71v698h71v-698z" />
    <glyph glyph-name="Oacute" unicode="&#xd3;" horiz-adv-x="666" 
d="M435 921l-95 -146h-66l85 146h76zM611 349c0 -110 -15 -177 -55 -239c-50 -77 -129 -119 -223 -119s-173 42 -223 119c-40 62 -55 129 -55 239s15 178 55 239c50 77 129 119 223 119s173 -42 223 -119c40 -62 55 -129 55 -239zM542 349c0 99 -13 153 -45 202
c-37 57 -93 87 -164 87s-127 -30 -164 -87c-32 -49 -44 -103 -44 -202s12 -153 44 -202c37 -57 93 -87 164 -87s127 30 164 87c32 49 45 103 45 202z" />
    <glyph glyph-name="Ocircumflex" unicode="&#xd4;" horiz-adv-x="666" 
d="M486 775h-85l-67 104l-67 -104h-85l104 146h96zM611 349c0 -110 -15 -177 -55 -239c-50 -77 -129 -119 -223 -119s-173 42 -223 119c-40 62 -55 129 -55 239s15 178 55 239c50 77 129 119 223 119s173 -42 223 -119c40 -62 55 -129 55 -239zM542 349
c0 99 -13 153 -45 202c-37 57 -93 87 -164 87s-127 -30 -164 -87c-32 -49 -44 -103 -44 -202s12 -153 44 -202c37 -57 93 -87 164 -87s127 30 164 87c32 49 45 103 45 202z" />
    <glyph glyph-name="Ograve" unicode="&#xd2;" horiz-adv-x="666" 
d="M406 775h-66l-95 146h76zM611 349c0 -110 -15 -177 -55 -239c-50 -77 -129 -119 -223 -119s-173 42 -223 119c-40 62 -55 129 -55 239s15 178 55 239c50 77 129 119 223 119s173 -42 223 -119c40 -62 55 -129 55 -239zM542 349c0 99 -13 153 -45 202
c-37 57 -93 87 -164 87s-127 -30 -164 -87c-32 -49 -44 -103 -44 -202s12 -153 44 -202c37 -57 93 -87 164 -87s127 30 164 87c32 49 45 103 45 202z" />
    <glyph glyph-name="Uacute" unicode="&#xda;" horiz-adv-x="664" 
d="M429 921l-95 -146h-66l85 146h76zM584 302c0 -65 -5 -141 -42 -203c-41 -69 -118 -107 -210 -108c-92 0 -169 39 -210 108c-37 62 -42 138 -42 203v396h69v-396c0 -58 5 -121 33 -168c28 -46 82 -74 150 -74s123 28 150 74c28 47 33 110 33 168v396h69v-396z" />
    <glyph glyph-name="Ucircumflex" unicode="&#xdb;" horiz-adv-x="664" 
d="M485 775h-85l-67 104l-67 -104h-85l104 146h96zM584 302c0 -65 -5 -141 -42 -203c-41 -69 -118 -107 -210 -108c-92 0 -169 39 -210 108c-37 62 -42 138 -42 203v396h69v-396c0 -58 5 -121 33 -168c28 -46 82 -74 150 -74s123 28 150 74c28 47 33 110 33 168v396h69v-396
z" />
    <glyph glyph-name="Ugrave" unicode="&#xd9;" horiz-adv-x="664" 
d="M411 775h-66l-95 146h76zM584 302c0 -65 -5 -141 -42 -203c-41 -69 -118 -107 -210 -108c-92 0 -169 39 -210 108c-37 62 -42 138 -42 203v396h69v-396c0 -58 5 -121 33 -168c28 -46 82 -74 150 -74s123 28 150 74c28 47 33 110 33 168v396h69v-396z" />
    <glyph glyph-name="dotlessi" unicode="&#x131;" horiz-adv-x="231" 
d="M151 0h-71v487h71v-487z" />
    <glyph glyph-name="circumflex" unicode="&#x2c6;" horiz-adv-x="467" 
d="M375 533h-75l-67 104l-67 -104h-75l95 146h95z" />
    <glyph glyph-name="tilde" unicode="&#x2dc;" horiz-adv-x="495" 
d="M410 596c-25 -33 -49 -58 -93 -58c-54 0 -105 43 -144 43c-23 0 -32 -18 -44 -34l-49 40c24 31 52 58 94 58c55 0 100 -43 142 -43c24 0 32 17 45 34z" />
    <glyph glyph-name="macron" unicode="&#xaf;" horiz-adv-x="484" 
d="M397 584h-310v63h310v-63z" />
    <glyph glyph-name="breve" unicode="&#x2d8;" horiz-adv-x="487" 
d="M422 698c-31 -75 -99 -123 -179 -123s-148 48 -179 123h65c24 -41 66 -67 114 -67s91 26 115 67h64z" />
    <glyph glyph-name="dotaccent" unicode="&#x2d9;" horiz-adv-x="497" 
d="M299 585c0 -28 -23 -50 -51 -50s-51 22 -51 50c0 29 23 51 51 51s51 -22 51 -51z" />
    <glyph glyph-name="ring" unicode="&#x2da;" horiz-adv-x="483" 
d="M358 649c0 -64 -52 -117 -116 -117c-65 0 -117 53 -117 117s52 116 117 116c64 0 116 -52 116 -116zM299 649c0 31 -26 57 -57 57c-32 0 -58 -26 -58 -57c0 -32 26 -57 58 -57c31 0 57 25 57 57z" />
    <glyph glyph-name="cedilla" unicode="&#xb8;" horiz-adv-x="481" 
d="M309 -73l-69 -123h-84l87 128l-33 72l54 21z" />
    <glyph glyph-name="hungarumlaut" unicode="&#x2dd;" horiz-adv-x="435" 
d="M399 716l-101 -146h-69l91 146h79zM276 716l-101 -146h-69l91 146h79z" />
    <glyph glyph-name="ogonek" unicode="&#x2db;" horiz-adv-x="509" 
d="M356 -196h-83l-105 196h68z" />
    <glyph glyph-name="caron" unicode="&#x2c7;" horiz-adv-x="467" 
d="M385 679l-104 -146h-95l-105 146h85l67 -105l67 105h85z" />
    <glyph glyph-name="Eth" unicode="&#xd0;" horiz-adv-x="659" 
d="M589 349c0 -57 -5 -134 -8 -158c-22 -166 -141 -191 -282 -191h-210v313h-42v69h42v316h210c141 0 260 -25 282 -191c3 -24 8 -101 8 -158zM519 349c0 54 -4 127 -7 149c-8 58 -28 90 -63 108c-41 20 -98 23 -150 23h-140v-247h160v-69h-160v-244h140c52 0 109 3 150 24
c35 17 55 50 63 107c3 22 7 96 7 149z" />
    <glyph glyph-name="Euro" unicode="&#x20ac;" horiz-adv-x="631" 
d="M569 58c-54 -50 -113 -67 -185 -67c-148 0 -249 101 -275 243h-76l14 62h55c-1 22 -2 52 -1 74h-68l14 62h57c16 157 115 275 280 275c73 0 127 -17 181 -67l-36 -61c-45 43 -83 59 -145 59c-126 0 -195 -88 -209 -206h257l-14 -62h-247v-28c0 -14 1 -32 2 -46h259
l-14 -62h-237c23 -103 95 -174 203 -174c62 0 101 16 146 59z" />
    <glyph glyph-name="uni00A0" unicode="&#xa0;" horiz-adv-x="135" 
 />
    <glyph glyph-name="apple" unicode="&#xf8ff;" horiz-adv-x="500" 
 />
    </font>
</defs>
</svg>
